HIERARCHY
ROOT Storm:Solving:Root
{
	OFFSET 0.000000 0.000000 0.000000
	CHANNELS 6 Xposition Yposition Zposition Xrotation Yrotation Zrotation
	JOINT Storm:Solving:L_Clav
	{
		OFFSET 0.000000 0.000000 0.000000
		CHANNELS 6 Xposition Yposition Zposition Xrotation Yrotation Zrotation
		JOINT Storm:Solving:L_Scapula_Joint
		{
			OFFSET 4.000000 0.000000 0.000000
			CHANNELS 6 Xposition Yposition Zposition Xrotation Yrotation Zrotation
			JOINT Storm:Solving:L_Shoulder_Joint
			{
				OFFSET 4.002680 -11.084217 10.770057
				CHANNELS 6 Xposition Yposition Zposition Xrotation Yrotation Zrotation
				JOINT Storm:Solving:L_Elbow_Joint
				{
					OFFSET 2.147804 -15.161016 -8.035206
					CHANNELS 6 Xposition Yposition Zposition Xrotation Yrotation Zrotation
					JOINT Storm:Solving:L_Wrist_Joint
					{
						OFFSET -2.240269 -20.029085 -9.040075
						CHANNELS 6 Xposition Yposition Zposition Xrotation Yrotation Zrotation
						JOINT Storm:Solving:L_Paw_Joint
						{
							OFFSET 0.706234 -5.721245 1.834930
							CHANNELS 6 Xposition Yposition Zposition Xrotation Yrotation Zrotation
							JOINT Storm:Solving:NewBone_4
							{
								OFFSET 1.343818 -3.510090 4.244948
								CHANNELS 6 Xposition Yposition Zposition Xrotation Yrotation Zrotation
								End Site
								{
									OFFSET 5.410949 0.263100 -1.672891
								}
							}
						}
					}
				}
			}
		}
	}
	JOINT Storm:Solving:R_Clav
	{
		OFFSET 0.000000 0.000000 0.000000
		CHANNELS 6 Xposition Yposition Zposition Xrotation Yrotation Zrotation
		JOINT Storm:Solving:R_Scapula_Joint
		{
			OFFSET -4.000000 -0.000000 0.000001
			CHANNELS 6 Xposition Yposition Zposition Xrotation Yrotation Zrotation
			JOINT Storm:Solving:NewBone_3
			{
				OFFSET -4.614829 -11.686039 9.889529
				CHANNELS 6 Xposition Yposition Zposition Xrotation Yrotation Zrotation
				JOINT Storm:Solving:R_Elbow_Joint
				{
					OFFSET -0.160743 -16.404385 -5.491840
					CHANNELS 6 Xposition Yposition Zposition Xrotation Yrotation Zrotation
					JOINT Storm:Solving:R_Wrist_Joint
					{
						OFFSET 2.412016 -21.935680 1.190893
						CHANNELS 6 Xposition Yposition Zposition Xrotation Yrotation Zrotation
						JOINT Storm:Solving:R_Paw_Joint
						{
							OFFSET -0.535018 -3.351765 3.806499
							CHANNELS 6 Xposition Yposition Zposition Xrotation Yrotation Zrotation
							JOINT Storm:Solving:NewBone_5
							{
								OFFSET -0.877549 -2.975662 5.252175
								CHANNELS 6 Xposition Yposition Zposition Xrotation Yrotation Zrotation
								End Site
								{
									OFFSET 5.926299 0.585030 1.321637
								}
							}
						}
					}
				}
			}
		}
	}
	JOINT Storm:Solving:Root_To_Spine_Dummy
	{
		OFFSET 0.000000 0.000000 0.000000
		CHANNELS 6 Xposition Yposition Zposition Xrotation Yrotation Zrotation
		JOINT Storm:Solving:Spine1
		{
			OFFSET 0.000000 0.000000 -3.827275
			CHANNELS 6 Xposition Yposition Zposition Xrotation Yrotation Zrotation
			JOINT Storm:Solving:Spine2
			{
				OFFSET 0.000001 0.000000 -16.939260
				CHANNELS 6 Xposition Yposition Zposition Xrotation Yrotation Zrotation
				JOINT Storm:Solving:Spine3
				{
					OFFSET 0.000002 0.000000 -14.393892
					CHANNELS 6 Xposition Yposition Zposition Xrotation Yrotation Zrotation
					JOINT Storm:Solving:Pelvis_Root
					{
						OFFSET 0.000002 0.000000 -14.393890
						CHANNELS 6 Xposition Yposition Zposition Xrotation Yrotation Zrotation
						JOINT Storm:Solving:L_Pelvis
						{
							OFFSET 0.000000 0.000000 0.000000
							CHANNELS 6 Xposition Yposition Zposition Xrotation Yrotation Zrotation
							JOINT Storm:Solving:LFemur_Joint
							{
								OFFSET 8.318080 -6.780918 -6.728058
								CHANNELS 6 Xposition Yposition Zposition Xrotation Yrotation Zrotation
								JOINT Storm:Solving:LTibia_Joint
								{
									OFFSET 4.762119 -18.232958 12.109562
									CHANNELS 6 Xposition Yposition Zposition Xrotation Yrotation Zrotation
									JOINT Storm:Solving:LAnkle_Joint
									{
										OFFSET 1.748854 -18.426313 -12.690502
										CHANNELS 6 Xposition Yposition Zposition Xrotation Yrotation Zrotation
										JOINT Storm:Solving:LFoot_Joint
										{
											OFFSET 2.893215 -10.324425 3.420891
											CHANNELS 6 Xposition Yposition Zposition Xrotation Yrotation Zrotation
											JOINT Storm:Solving:LFoot_End
											{
												OFFSET 3.317142 -1.153622 6.178677
												CHANNELS 6 Xposition Yposition Zposition Xrotation Yrotation Zrotation
												End Site
												{
													OFFSET 6.285072 0.685661 -3.246243
												}
											}
										}
									}
								}
							}
						}
						JOINT Storm:Solving:R_Pelvis
						{
							OFFSET 0.000000 0.000000 0.000000
							CHANNELS 6 Xposition Yposition Zposition Xrotation Yrotation Zrotation
							JOINT Storm:Solving:RFemur_Joint
							{
								OFFSET -8.082922 -7.104603 -6.553699
								CHANNELS 6 Xposition Yposition Zposition Xrotation Yrotation Zrotation
								JOINT Storm:Solving:RTibia_Joint
								{
									OFFSET -3.034004 -18.950596 11.551186
									CHANNELS 6 Xposition Yposition Zposition Xrotation Yrotation Zrotation
									JOINT Storm:Solving:RAnkle_Joint
									{
										OFFSET 0.163292 -19.936810 -10.210636
										CHANNELS 6 Xposition Yposition Zposition Xrotation Yrotation Zrotation
										JOINT Storm:Solving:RFoot_Joint
										{
											OFFSET -0.793680 -9.967937 0.101715
											CHANNELS 6 Xposition Yposition Zposition Xrotation Yrotation Zrotation
											JOINT Storm:Solving:RFoot_End
											{
												OFFSET -4.434014 -1.490955 4.525612
												CHANNELS 6 Xposition Yposition Zposition Xrotation Yrotation Zrotation
												End Site
												{
													OFFSET -4.697033 0.328136 -4.493862
												}
											}
										}
									}
								}
							}
						}
					}
				}
			}
		}
	}
	JOINT Storm:Solving:Root_To_Neck
	{
		OFFSET 0.000000 0.000000 0.000000
		CHANNELS 6 Xposition Yposition Zposition Xrotation Yrotation Zrotation
		JOINT Storm:Solving:Neck1
		{
			OFFSET 0.000000 4.185541 5.729186
			CHANNELS 6 Xposition Yposition Zposition Xrotation Yrotation Zrotation
			JOINT Storm:Solving:Neck2
			{
				OFFSET 2.125778 5.862305 7.100437
				CHANNELS 6 Xposition Yposition Zposition Xrotation Yrotation Zrotation
				JOINT Storm:Solving:Head
				{
					OFFSET -4.381103 5.689912 1.801980
					CHANNELS 6 Xposition Yposition Zposition Xrotation Yrotation Zrotation
					JOINT Storm:Solving:Head_End
					{
						OFFSET -9.753127 2.579648 15.562063
						CHANNELS 6 Xposition Yposition Zposition Xrotation Yrotation Zrotation
						End Site
						{
							OFFSET -4.085257 17.259090 -5.421284
						}
					}
				}
			}
		}
	}
	JOINT Storm:Solving:R_Clav_1
	{
		OFFSET 0.000000 0.000000 0.000000
		CHANNELS 6 Xposition Yposition Zposition Xrotation Yrotation Zrotation
		End Site
		{
			OFFSET 0.000000 0.010000 -0.000000
		}
	}
}
MOTION
Frames: 4
Frame Time: 0.008333
-0.711253 57.192799 -181.725479 12.125484 -15.564393 -1.008706 -0.000004 0.000002 0.000003 -1.693424 0.139244 -4.699285 4.000003 0.000000 -0.000017 -3.242883 -1.004735 -3.645563 4.002681 -11.084232 10.770047 -5.100543 -2.649667 -4.774129 2.147803 -15.161027 -8.035196 -18.351378 -9.169281 7.138599 -2.240268 -20.029087 -9.040098 -1.921236 -19.171779 5.570644 0.706240 -5.721230 1.834940 0.338120 0.016129 -0.104581 1.343809 -3.510090 4.244937 0.000012 0.000001 0.000001 -0.000004 0.000002 0.000003 3.322644 0.241949 4.160127 -3.999997 0.000007 0.000001 3.378597 -4.517941 -7.216014 -4.614843 -11.686039 9.889542 3.732808 7.052473 12.716135 -0.160747 -16.404396 -5.491829 -6.864024 -0.755115 0.299452 2.412013 -21.935686 1.190893 14.541420 7.987480 -2.477802 -0.535014 -3.351775 3.806500 -16.679759 -1.083380 -3.895386 -0.877559 -2.975674 5.252172 0.000001 -0.000002 -0.000000 -0.000004 0.000002 0.000003 0.000001 0.000000 -0.000001 -0.000008 0.000004 -3.827277 -12.149884 -5.940169 2.743266 0.000002 -0.000004 -16.939266 -2.879268 7.245646 -7.758245 0.000002 0.000003 -14.393868 0.738275 0.127393 -2.132729 0.000001 0.000006 -14.393900 6.647295 1.376103 2.116176 0.000006 -0.000002 0.000008 -0.000000 -0.000002 0.000003 8.318084 -6.780925 -6.728044 -7.722903 5.562658 -2.070693 4.762112 -18.232944 12.109533 -1.355749 -0.301338 0.242871 1.748854 -18.426329 -12.690516 -17.342689 -3.403867 3.166296 2.893216 -10.324408 3.420870 9.714185 0.628562 -5.065185 3.317142 -1.153617 6.178674 0.000001 0.000001 0.000000 0.000009 0.000004 0.000011 0.000001 0.000001 0.000001 -8.082915 -7.104595 -6.553683 1.073454 7.126512 -1.335633 -3.034004 -18.950592 11.551207 11.114280 -0.679113 1.938284 0.163290 -19.936817 -10.210652 5.776730 -0.236450 4.481123 -0.793670 -9.967951 0.101722 18.820668 1.662240 17.997152 -4.434035 -1.490939 4.525603 -0.000000 0.000007 -0.000003 -0.000004 0.000002 0.000003 -0.000000 0.000002 -0.000001 0.000004 4.185538 5.729178 -5.310011 3.021692 -0.535469 2.125775 5.862319 7.100443 49.811880 12.658348 -32.960003 -4.381105 5.689914 1.801981 -21.663212 6.755137 7.840140 -9.753144 2.579652 15.562082 -0.000001 0.000000 0.000001 -0.000004 0.000002 0.000003 0.000001 0.000002 -0.000001 
-0.743861 57.147415 -181.341080 12.633125 -15.556862 -1.069046 -0.000001 0.000001 -0.000015 -1.668926 0.123192 -4.220441 3.999996 -0.000009 0.000010 -3.256983 -1.104364 -3.965590 4.002684 -11.084236 10.770059 -5.079034 -2.692644 -4.880136 2.147798 -15.161004 -8.035242 -18.612617 -8.662334 7.433263 -2.240268 -20.029087 -9.040071 -1.826664 -19.487322 5.524353 0.706231 -5.721254 1.834918 -0.419885 -0.020889 0.129745 1.343828 -3.510101 4.244957 0.000005 -0.000000 -0.000003 -0.000001 0.000001 -0.000015 3.366026 0.192438 3.268346 -4.000006 -0.000005 -0.000010 3.376594 -4.474621 -6.228536 -4.614831 -11.686048 9.889524 4.630692 7.340837 12.340679 -0.160748 -16.404388 -5.491853 -9.465266 -1.049891 0.389015 2.412018 -21.935688 1.190902 16.977058 8.540825 -1.529304 -0.535011 -3.351739 3.806504 -15.448860 -1.042757 -3.599262 -0.877547 -2.975659 5.252157 0.000001 0.000002 -0.000000 -0.000001 0.000001 -0.000015 -0.000001 -0.000000 0.000000 0.000001 0.000003 -3.827272 -12.338883 -6.244329 2.809509 0.000001 -0.000004 -16.939257 -3.160650 7.488280 -8.114317 -0.000004 0.000009 -14.393900 0.643831 0.161657 -1.840421 -0.000001 -0.000004 -14.393893 6.302897 1.818474 2.661644 0.000001 -0.000005 -0.000038 0.000000 -0.000003 0.000003 8.318107 -6.780921 -6.728058 -6.822994 5.307592 -2.478491 4.762116 -18.232958 12.109551 -1.302971 -0.289494 0.233547 1.748861 -18.426319 -12.690488 -17.518141 -3.446420 2.900129 2.893194 -10.324408 3.420883 9.336632 0.620261 -4.867176 3.317133 -1.153615 6.178646 -0.000000 0.000001 0.000001 0.000004 0.000001 -0.000034 -0.000000 0.000003 -0.000000 -8.082927 -7.104608 -6.553679 -0.243047 7.305507 -1.721755 -3.034004 -18.950592 11.551178 14.274912 -0.802261 2.509381 0.163289 -19.936827 -10.210629 5.224711 -0.160664 4.760875 -0.793693 -9.967955 0.101695 23.085633 2.887550 22.062906 -4.434002 -1.490989 4.525606 0.000001 0.000004 0.000001 -0.000001 0.000001 -0.000015 0.000002 0.000001 -0.000000 0.000001 4.185539 5.729205 -5.243980 3.130295 -0.640895 2.125776 5.862304 7.100460 49.939413 12.491613 -33.220698 -4.381109 5.689929 1.801965 -21.903187 7.002950 7.878849 -9.753129 2.579640 15.562071 -0.000003 0.000000 0.000001 -0.000001 0.000001 -0.000015 -0.000000 -0.000001 0.000000 
-0.770026 57.095924 -180.957657 13.123082 -15.539083 -1.092066 0.000001 -0.000002 -0.000003 -1.649659 0.108053 -3.746586 3.999997 0.000002 0.000002 -3.282267 -1.252086 -4.345924 4.002687 -11.084235 10.770064 -5.056045 -2.619869 -4.835155 2.147799 -15.161024 -8.035204 -18.812573 -8.513528 7.445328 -2.240266 -20.029085 -9.040092 -1.806019 -19.517197 5.523058 0.706220 -5.721238 1.834918 -1.022506 -0.052541 0.315709 1.343811 -3.510071 4.244945 0.000006 0.000006 0.000003 0.000001 -0.000002 -0.000003 3.403745 0.142807 2.399632 -3.999999 0.000006 -0.000032 3.371979 -4.441219 -5.318356 -4.614830 -11.686038 9.889536 5.718024 7.729648 11.955921 -0.160744 -16.404371 -5.491841 -12.610810 -1.411345 0.479327 2.412020 -21.935686 1.190889 20.169935 8.980741 -0.738079 -0.535028 -3.351778 3.806475 -13.997880 -0.986701 -3.251335 -0.877541 -2.975675 5.252177 0.000003 -0.000001 0.000001 0.000001 -0.000002 -0.000003 -0.000000 0.000000 0.000000 -0.000000 -0.000001 -3.827272 -12.535047 -6.499607 2.869323 -0.000013 0.000000 -16.939278 -3.400558 7.745725 -8.579944 0.000008 -0.000004 -14.393900 0.491195 0.198882 -1.655195 -0.000005 0.000001 -14.393891 6.011824 2.228177 3.360773 -0.000002 -0.000001 0.000004 0.000001 -0.000001 -0.000000 8.318089 -6.780927 -6.728043 -6.004877 5.156021 -2.818740 4.762125 -18.232962 12.109575 -1.225481 -0.272123 0.219835 1.748855 -18.426308 -12.690530 -17.707530 -3.491285 2.607859 2.893193 -10.324415 3.420874 8.906327 0.609206 -4.641557 3.317140 -1.153627 6.178684 0.000003 0.000001 0.000000 0.000000 0.000004 0.000004 -0.000001 0.000002 -0.000004 -8.082942 -7.104605 -6.553692 -1.860717 7.817556 -1.911234 -3.034002 -18.950588 11.551196 17.975618 -0.906141 3.185217 0.163290 -19.936802 -10.210630 5.506286 -0.071004 5.817906 -0.793689 -9.967949 0.101720 24.282847 3.290736 23.202583 -4.434011 -1.490954 4.525619 0.000002 0.000004 0.000002 0.000001 -0.000002 -0.000003 -0.000002 -0.000001 -0.000000 -0.000009 4.185541 5.729194 -5.208333 3.230989 -0.729085 2.125782 5.862300 7.100448 50.084732 12.291971 -33.528859 -4.381097 5.689905 1.801978 -22.101124 7.266199 7.928594 -9.753118 2.579652 15.562035 -0.000000 -0.000000 0.000001 0.000001 -0.000002 -0.000003 0.000000 -0.000000 0.000000 
-0.805772 57.041214 -180.583496 13.627864 -15.487772 -1.086338 -0.000002 0.000006 -0.000009 -1.671463 0.099951 -3.421173 3.999992 0.000000 -0.000006 -3.314029 -1.434967 -4.502463 4.002676 -11.084241 10.770029 -4.933979 -2.807309 -5.065429 2.147804 -15.161029 -8.035204 -19.107804 -8.066155 7.774270 -2.240266 -20.029095 -9.040091 -1.873515 -19.601871 5.427382 0.706225 -5.721232 1.834918 -1.348658 -0.070492 0.416227 1.343816 -3.510086 4.244927 0.000003 0.000003 0.000001 -0.000002 0.000006 -0.000009 3.434297 0.086108 1.434545 -3.999998 0.000002 -0.000021 3.349772 -4.413607 -4.227897 -4.614830 -11.686033 9.889544 7.012472 8.217997 11.363992 -0.160744 -16.404377 -5.491840 -16.443648 -1.857627 0.562367 2.412015 -21.935684 1.190917 23.898398 9.265511 0.205031 -0.535018 -3.351772 3.806486 -11.522817 -0.870779 -2.661294 -0.877542 -2.975671 5.252168 0.000005 0.000000 -0.000000 -0.000002 0.000006 -0.000009 0.000001 0.000000 -0.000000 -0.000001 0.000005 -3.827278 -12.744181 -6.777481 2.951839 -0.000007 0.000008 -16.939276 -3.646085 7.998868 -9.236169 -0.000004 0.000007 -14.393907 0.311982 0.254629 -1.295793 0.000005 -0.000000 -14.393876 5.712912 2.700578 4.143465 0.000006 -0.000002 -0.000008 -0.000002 0.000002 -0.000000 8.318065 -6.780919 -6.728070 -5.170102 4.947731 -3.279853 4.762125 -18.232958 12.109558 -1.143996 -0.253875 0.205392 1.748852 -18.426300 -12.690509 -17.913261 -3.536078 2.359517 2.893232 -10.324429 3.420905 8.599603 0.600289 -4.480771 3.317143 -1.153628 6.178660 0.000003 0.000003 0.000001 0.000012 0.000004 -0.000004 -0.000001 0.000006 -0.000003 -8.082923 -7.104601 -6.553710 -3.560099 8.027718 -2.100942 -3.034003 -18.950598 11.551208 21.778847 -0.967206 3.885085 0.163293 -19.936792 -10.210597 5.036985 0.117335 7.178099 -0.793707 -9.967936 0.101725 23.065265 2.880927 22.043522 -4.434011 -1.490981 4.525622 -0.000003 0.000003 -0.000002 -0.000002 0.000006 -0.000009 0.000007 0.000001 0.000000 -0.000004 4.185539 5.729185 -5.223032 3.374058 -0.829209 2.125777 5.862299 7.100439 50.252533 12.095333 -33.833994 -4.381091 5.689899 1.801978 -22.316385 7.479968 7.994502 -9.753117 2.579649 15.562048 0.000000 -0.000002 0.000001 -0.000002 0.000006 -0.000009 0.000001 -0.000000 -0.000000 
